<?xml version="1.0" encoding="UTF-8"?>
<!DOCTYPE svg PUBLIC "-//W3C//DTD SVG 1.1//EN" "http://www.w3.org/Graphics/SVG/1.1/DTD/svg11.dtd">
<svg xmlns="http://www.w3.org/2000/svg" xml:space="preserve" width="512px" height="512px" shape-rendering="geometricPrecision" text-rendering="geometricPrecision" image-rendering="optimizeQuality" fill-rule="evenodd" clip-rule="evenodd" viewBox="0 0 512 512" xmlns:xlink="http://www.w3.org/1999/xlink">
    <title>ballpen2 icon</title>
    <desc>ballpen2 icon from www.IconExperience.com. Copyright by INCORS GmbH (www.incors.com).</desc>
    <rect fill="black" x="0" y="0" width="512" height="512" />
    <path fill="white" d="M26.4792 499.599c2.3815,1.36684 4.34841,1.8098 5.19497,0.975654 1.47855,-1.45656 -1.01644,-6.25255 -5.57126,-10.7095 -4.55482,-4.45694 -9.44763,-6.88987 -10.9262,-5.4333 -0.851879,0.839466 -0.383026,2.78723 1.03807,5.14071l0.356782 -0.351462c4.1647,2.59926 7.56867,7.7804 7.89886,12.2888l-4.55695 4.48992c-0.934159,0.920328 -2.06657,1.53317 -3.26636,1.84136 0.174844,-0.904013 -1.40833,-3.43057 -3.51037,-5.29676 -1.98996,-1.76653 -4.44594,-2.94292 -5.38862,-2.99044 0.273438,-1.30477 0.920682,-2.54642 1.94457,-3.55541l6.01564 -5.92698c-1.51615,-2.54819 -2.18148,-4.98963 -1.36152,-6.68842 12.1221,-27.5158 22.1556,-44.1307 37.1177,-62.9844 2.03997,0.075896 3.64904,0.736617 5.49076,1.73284 10.9769,5.93833 21.2562,16.1953 29.57,25.7837 3.44405,3.97177 10.0566,10.9673 10.2484,16.7932 -19.1545,14.7632 -36.0417,24.6754 -64.0285,36.6773 -1.71724,0.806484 -4.18847,0.174135 -6.77248,-1.28775l0.506446 -0.498998zm212.557 -291.505c18.591,-27.3782 36.8936,-45.3181 61.3165,-67.685 50.8078,-43.2387 94.5792,-82.3957 142.071,-130.251 2.24035,0.669942 5.50565,2.32618 7.7304,3.6313 -0.185129,-0.216339 -2.21304,-2.32547 -2.20595,-2.31873 -4.35515,-4.53106 -10.0481,-9.1593 -14.1067,-10.9624 -49.1536,43.7835 -93.6439,86.8761 -139.914,133.752 -24.4233,22.3673 -39.8684,42.428 -58.4594,69.8062l3.56747 4.02781zm72.1533 62.9408c1.497,-1.54913 -0.0485876,-6.0543 -3.79444,-12.1778 -5.77022,-9.43274 -13.441,-17.8778 -21.3211,-25.5869 -12.8825,-12.6058 -25.7131,-21.747 -33.3988,-24.3254 -1.39698,-0.468498 -2.7468,-0.789815 -3.77955,-0.689802 -69.4881,67.9588 -133.468,135.12 -191.295,204.612 3.44653,0.152147 9.6661,3.70578 16.79,9.48416 4.47928,3.63379 8.73088,7.5591 12.7754,11.6639 5.84293,5.92982 10.6187,11.6656 13.6467,16.2215 2.29568,3.45362 3.59265,6.36782 3.64797,8.39005 65.8713,-53.2329 129.657,-111.722 193.949,-174.962 4.26968,-4.19911 8.52092,-8.41913 12.78,-12.6296zm12.0795 -1.28739c47.4666,-45.3113 116.632,-117.585 158.208,-171.953 -0.447928,-3.848 -1.56154,-7.13387 -3.44015,-10.7446 -5.62198,-10.8074 -14.4248,-20.1621 -23.5306,-28.2826 -6.64054,-5.91989 -14.0581,-11.8096 -22.3382,-15.1749 -35.8098,37.7285 -72.4367,64.5995 -122.363,104.85 -15.1686,26.8526 -26.9587,39.0988 -50.1598,51.3302 5.08645,2.15062 10.7836,5.43366 16.7145,9.67035 7.31864,5.22831 14.1358,11.195 20.4455,17.5979 10.1133,10.2648 17.8941,20.7788 22.3216,29.5835 2.50138,4.97473 3.93737,9.45756 4.14272,13.1233zm168.622 -185.48c3.38056,-4.96409 6.63806,-9.93315 9.75689,-14.9001 0.889473,-1.38953 1.75589,-2.76276 2.57656,-4.10299 4.08313,-7.23388 -3.6618,-20.4299 -14.3078,-31.1003 -0.680227,-0.681645 -1.37109,-1.3523 -2.0726,-2.0116 -10.9769,-10.3169 -24.2906,-17.5699 -31.0166,-13.2662 -1.82824,1.08808 -3.6579,2.19531 -5.4865,3.31956 -3.04151,3.58839 -6.07381,7.07145 -9.10255,10.458 4.72293,2.01869 9.95124,5.24569 15.1866,9.20505 6.29901,4.76407 12.2026,10.219 17.554,16.047 6.9576,7.57825 14.0322,16.44 16.912,26.3515z"/>
</svg>