<?xml version="1.0" encoding="utf-8"?>
<!-- Generator: Adobe Illustrator 18.1.1, SVG Export Plug-In . SVG Version: 6.00 Build 0)  -->
<!DOCTYPE svg PUBLIC "-//W3C//DTD SVG 1.1//EN" "http://www.w3.org/Graphics/SVG/1.1/DTD/svg11.dtd">
<svg version="1.1" xmlns="http://www.w3.org/2000/svg" xmlns:xlink="http://www.w3.org/1999/xlink" x="0px" y="0px"
	 viewBox="0 0 340 150" enable-background="new 0 0 340 150" xml:space="preserve">
<g id="logo">
	<g>
		<path fill="#FFFFFF" stroke="#FFFFFF" stroke-width="2" d="M127.7,58.3c0-0.5,0.5-1.1,1.5-1.9c2.1-1.7,4-2.8,5.6-3.3l1.5,1.5
			c-0.3,0.8-0.6,2-0.8,3.4c-0.2,1.2-0.3,1.9-0.3,2.2v1.8l-0.8,1.2c0,0.8,0.4,1.6,1.1,2.3c-0.2,0.4-0.3,0.6-0.3,0.6l0.1,2.4l0,0.5
			c0,0.2,0,0.6,0,1.1l-0.2,9.3c0,0.5,0.2,1.6,0.6,3.4l0.1,2.1c0.2,1,0.3,1.5,0.3,1.7c0,0.7-0.3,1.3-0.9,1.9
			c-0.2,0.2-0.8,0.6-1.9,1.3c-1.6,1.3-2.6,2-2.8,2.1c-0.3,0.1-0.6,0.2-0.9,0.2c-0.4,0-0.8-0.2-1.2-0.6c0.1-0.8,0.2-1.4,0.2-1.6
			c0-0.4,0.2-1.1,0.5-2.1l0-2.4l0.3-4.8l0-0.9c0-0.5,0.3-0.8,0.8-0.8c0.1,0,0.3,0,0.5,0c0.2-0.5,0.2-0.9,0.2-1.1
			c0-0.3-0.1-0.8-0.3-1.5c-0.1-0.3-0.2-0.8-0.3-1.4l-0.8-0.6c0.1-0.7,0.1-1.3,0.1-1.6c0-0.2,0-0.4,0-0.7c0-0.3,0-0.5,0-0.7
			c0-0.4,0.2-0.9,0.5-1.4c-0.3-0.4-0.5-0.8-0.5-1.2v-0.4V68l-0.1-1.1c2.1-0.4,3.2-0.7,3.2-1c0,0,0-0.1-0.1-0.1
			c-0.5-0.4-1.1-0.6-1.8-0.6c-0.5,0-1.2,0-1.9,0.1c0.1-0.5,0.1-0.8,0.1-1c0-0.1-0.1-1.7-0.4-4.8C128.6,59,128.3,58.6,127.7,58.3z
			 M128.6,38.6L128.6,38.6c-0.1-1.2,0.8-2.4,2.5-3.8c0.4-0.3,0.8-0.7,1.3-1.3c0,0,0.4-0.3,1-0.8c1.2-1.8,2-2.8,2.2-3
			c0.5-0.4,0.9-0.5,1.2-0.5c0.1,0,0.5,0.2,1.1,0.7c0.6,0.5,0.9,1,0.9,1.7c0,0.5-0.3,1-0.9,1.4c-1.5,1.1-2.9,2.2-4.3,3.5l-1.4,0.9
			l-1.7,1.2c-0.9,0.5-1.4,0.7-1.6,0.7C128.8,39.4,128.6,39.1,128.6,38.6z"/>
		<path fill="#FFFFFF" stroke="#FFFFFF" stroke-width="2" d="M152.8,65.2l1.7,0.3l0.3-0.3l-0.5-2.5c0.7-0.4,1.1-0.7,1.3-0.8
			c0.1-0.1,1.1-1,2.8-2.8l1.3-0.9c0.7-0.6,1.2-0.8,1.5-0.8c0.3,0,0.9,0.1,1.7,0.2l0.7,0.5c0.6-0.5,1.4-0.8,2.2-1.1v-1.3
			c0.3-0.2,1-0.6,2.2-1l2.2-0.8l1.7-0.1c0.8-0.3,1.2-0.4,1.4-0.4c0.3,0,0.7,0.2,1.2,0.5c0.9,0.7,1.6,1.1,1.9,1.2l1-1.2
			c1,0.3,1.6,0.5,2,0.5c2.1,0.4,3.3,0.6,3.4,0.7l1.2,0.7c0.1,0.1,0.3,0.1,0.5,0.1c0.5,0,1.1-0.3,1.8-0.8c-0.5-0.6-0.7-0.9-0.7-1.1
			l-0.3-3l-0.2-1c2-1.4,3-2.1,3-2.3c0-0.3-0.6-1-1.8-2.1c-0.7-0.8-1.1-2.2-1.1-4.2l1.2-0.6c-0.3-0.5-0.5-1.1-0.6-1.9
			c-0.5-1.5-0.7-2.5-0.8-3.1l-0.1-1.4c0-1,0.1-2.2,0.1-3.8c0-0.5,0.1-1.3,0.4-2.3l-0.5-2.8c0-0.2,0.1-0.5,0.3-0.9l0.9-0.5
			c-0.3-0.6-0.4-0.8-0.5-0.7c-0.1-0.2-0.6-0.3-1.3-0.3l-0.3-0.1l-0.1-0.1l4-2.6l-1-1.2l-0.3-2.3c-0.1-0.6-0.6-1-1.6-1.3
			c-1.6-0.6-2.3-0.9-2.3-1.2c0-0.2,0.2-0.5,0.5-0.8c0.3-0.2,1.5-0.6,3.6-1c0.6-0.9,2.2-1.5,4.7-1.8c0.2,0.5,0.4,1.2,0.4,2.2l0.1,0.9
			v0c0,0-0.1,0.7-0.3,2.1v1.4l-0.1,0.8v2.1v1.4v2.1c0,0.3-0.1,0.6-0.2,1c-0.3,0.9-0.4,1.4-0.4,1.5l0.2,3.6l-1,1.8
			c0.3,1.1,0.7,2,1.2,2.9l-0.4,1.8l0.2,1.4c-0.2,0.7-0.3,1.2-0.3,1.3c0,0.6,0.1,1.3,0.3,2.1c0.1,0.4,0.1,0.7,0.1,0.9
			c0,0.2-0.1,0.5-0.3,0.8l-1.1,0.2c-0.4,0.7-0.5,1.3-0.5,1.7c0,0.2,0,0.4,0,0.7c1.1,0.7,1.7,1.3,1.8,1.9c0,0.1-0.1,1.1-0.2,2.9
			c0,0.2,0,0.3,0,0.4c0,0.9,0.1,1.8,0.2,2.8c0.1,0.4,0.1,0.7,0.1,0.9c0,0.1,0,0.2,0,0.3l-0.1,0.9l0,1.2c-0.4,0.7-0.6,1.2-0.6,1.3
			l0.1,2.6l0,0.8l0.1,2.9l0.3,3.3l0,1l0.2,2.3l-0.1,2.4l0.7,4.2l0,1.9c0.5,1.8,0.7,3,0.7,3.6c0,0.7,0.1,1.4,0.1,2.1
			c0.6,0.5,0.8,1.1,0.8,1.6c0,0.2,0,0.4,0,0.6c-0.4,0.2-1.5,0.4-3.5,0.6c-1.5,0.3-2.7,0.5-3.6,0.6l-0.7-0.6c-0.8,0.6-1.6,1-2.3,1.2
			c-0.3,0.1-1.7,0.4-4.1,0.8c-3.5,0.9-6,1.3-7.5,1.3c-2.3,0.4-3.8,0.5-4.4,0.5c-3,0-5.3-0.2-7-0.6L159,90c-0.9,0.5-1.5,0.8-1.8,0.8
			c-0.2,0-0.4-0.2-0.5-0.6c0-0.1-0.1-0.4-0.2-0.9c0-0.2-0.2-0.5-0.5-0.8c-0.6,0.3-1.1,0.4-1.5,0.4c-0.5,0-0.9-0.2-1.2-0.5
			c-1.3-1.1-2.2-1.9-2.8-2.2c0.1-0.5,0.1-0.9,0.1-1.3c0-0.7-0.3-1.2-0.9-1.8c-0.7-0.7-1.1-1-1.2-1.1l-0.1-0.9
			c-0.5-2.4-0.7-3.7-0.7-3.9c0-0.6,0.1-1.2,0.3-2c0.2-0.5,0.2-1.3,0.2-2.3l0.8-1.5c1.2-3.1,2-4.8,2.2-5.1
			C151.6,66.1,152.1,65.7,152.8,65.2z M155.6,81.1c0.7,0.4,1.1,0.7,1.2,0.9l0.4,1.1c0.8,1.1,1.4,1.9,1.6,2.2
			c0.2,0.3,0.9,0.9,1.9,1.7l1.2,1.2l1.3,0.7c1.1,0.8,1.7,1.2,1.8,1.2c0.6,0,1.1-0.8,1.4-2.5c1.2,0.7,2.2,1,3.1,1l4.2-0.1h2l4.3-1
			c1.7-0.3,2.7-0.6,3-0.9c0.8-1.2,1.4-2,2-2.6c-0.3-0.5-0.4-0.8-0.3-1l0.2-1.3V78l0-3.1c-0.2-0.9-0.3-1.7-0.4-2.3l1.7-0.6
			c-0.2-0.6-0.3-1-0.3-1.4c0-0.3,0-0.6,0-1l-1.1-0.3l3-2.4l-2.9-3.4l0-1c0-0.1-0.1-0.3-0.3-0.6v-1.7c-0.6-0.2-0.9-0.3-1.1-0.3
			c-0.1,0-0.6,0.2-1.5,0.5c0,0-0.2,0-0.5,0c-1,0-1.7-0.2-2.1-0.5l-1.7-1.6l-3.3-1l-1.9-1.3c-1.3,1.7-2.1,2.6-2.1,2.6h-0.2h-0.3
			c-0.5,0-1.3,0.2-2.4,0.7l-1.3-0.1c-0.8,0-1.7,0.6-2.8,1.8l-1.6-0.2c-0.5,0.7-0.9,1-1.1,1.2l-1.6,0.9c-1.3,1.1-1.9,2.1-1.8,3
			c-0.9,0.7-1.7,1.4-2.3,2.3l-1.3,2c-0.2,0.4-0.2,1.2-0.2,2.4c0,0.5,0.1,1.1,0.3,1.9l0.2,1.1l0.4,1.2l0.4,1.3c0.6,1,0.9,1.7,0.9,2
			S155.6,80.7,155.6,81.1z"/>
		<path fill="#FFFFFF" stroke="#FFFFFF" stroke-width="2" d="M203.7,78.1c0-2.1,0.1-3.7,0.4-4.7c0.3-0.8,0.7-2.1,1.4-3.9
			c1.3-2.5,2.1-3.9,2.3-4.2c0.2-0.3,0.9-0.9,2.2-1.7c0,0,0.3-0.5,0.7-1.5c0.3-0.5,0.5-0.8,0.7-0.9c0.4-0.3,1.6-1,3.8-2
			c0.7-0.3,1.5-0.9,2.3-1.9c0.1-0.1,2.1-0.9,5.9-2.3c2-0.7,4.8-1.1,8.5-1.1c0.7,0,1.7,0.1,2.9,0.4l0.2,1c0.5,0.2,0.8,0.4,1.2,0.7
			c0.5-0.2,0.9-0.6,1.2-1.3c1.8,0.4,3.4,1,4.7,2c1,0.6,1.6,1,1.7,1.2c0.1,0.1,0.4,0.7,1,1.7c0.7,1,1.8,1.5,3.3,1.6
			c0.8,1.3,1.3,2.3,1.5,2.9c0.2,0.6,0.4,1.7,0.6,3.1c0.2,1.5,0.3,2.7,0.4,3.5h-0.8v0.6l-1,1.1c0.1,0.6,0.6,1.1,1.4,1.6
			c-0.1,1.4-0.2,2.4-0.3,2.9c-0.1,0.2-0.3,0.8-0.7,1.7c-1.2,2.8-2.1,4.6-2.5,5.4c-1.7,2.1-3.3,3.4-4.7,3.8l-2.6,1.3l-2.5,1.2
			c-1.3,0.7-2.1,1.1-2.3,1.1c-0.2,0-1.8,0.2-4.7,0.3l-3.4,0.7h-3.5l-1.6,0.2c-2.9-0.5-4.7-0.7-5.4-0.8c-0.5-0.5-0.8-0.8-1-0.9
			c-0.1,0-0.7-0.1-1.9-0.3c-0.7-0.1-1.9-0.8-3.9-2.1c-0.3-0.2-0.9-0.5-1.8-1c-0.2-0.6-0.3-1-0.4-1.2c-0.1-0.4-0.3-0.6-0.4-0.7
			c0,0-0.4-0.2-1-0.7c0,0-0.1-0.1-0.3-0.4c-0.7-1.1-1.1-2.3-1.1-3.4c0-0.6,0.3-1.1,1-1.6c-0.3-0.5-0.8-0.9-1.5-1.3L203.7,78.1z
			 M209.1,77.1v0.5l0.4,0.4c0.3-0.3,0.7-0.5,1-0.5c0.3,1.1,0.5,2,0.7,2.5c0.2,0.4,1,1.8,2.5,4.2c0,0.1,0,0.2,0,0.3
			c0,0.3-0.2,0.8-0.5,1.4c0.1,0.5,0.6,0.7,1.3,0.7c0.3-0.3,0.6-0.5,0.8-0.5c0.2,0,1.6,0.7,4.3,2.1c1.1,0.6,2.3,0.8,3.5,0.8h2.9
			l1.5,0.3c0.6,0.2,1.2,0.2,1.6,0.2c0.7,0,1.6-0.1,2.5-0.3c0.6-0.2,1.5-0.4,2.7-0.6c0.3-0.1,1.4-0.8,3.3-2.1c1.3-0.4,2-0.7,2.1-0.9
			c0.2-0.3,0.8-1.2,1.9-2.9l1.2-2.4c0.8-0.8,1.3-1.3,1.4-1.5c0.1-0.2,0.2-0.5,0.2-0.9c-0.5-0.8-0.8-1.3-0.7-1.6v0l0.2-1
			c0.1-1.5,0.3-2.7,0.6-3.7c-0.3-0.6-0.6-1.6-0.9-2.9l-0.8-2.5c-0.1-0.3-0.1-1-0.1-2l-0.2-0.2h-1.2c-0.4-0.7-1.1-1.7-2.2-3.1
			c-0.7-0.8-1-1.3-1.1-1.3c-0.1-0.1-0.4-0.2-1-0.5c-0.5-0.2-1.3-0.5-2.4-1c-0.3-1.1-0.8-1.7-1.6-1.7c-0.2,0-0.7,0.2-1.5,0.5
			c-1-0.3-1.6-0.4-1.7-0.4c-1.7,0-2.8,0-3.3,0.1c-0.6,0-1.4,0.4-2.5,1.1l-1-0.7c-0.5,0.7-0.9,1-1.1,1.2l-2.1,1.1l-0.3,0.4l-5.9,4.9
			l-0.4,0.3c-0.1,0.9-0.2,1.5-0.3,1.7l-1,1.7c-0.3,0.9-0.7,1.7-1.2,2.3c0,0.3,0,0.5,0,0.7c0,0.7-0.6,1.4-1.7,1.8
			c0,0.1,0.1,0.5,0.4,1.1c0.9,0.6,1.3,1,1.3,1.2C210.7,76,210.2,76.5,209.1,77.1z"/>
		<path fill="#FFFFFF" stroke="#FFFFFF" stroke-width="2" d="M232.8,139.6c0.8-0.5,1.4-0.8,1.8-0.8c0.2,0,2,0.6,5.4,1.9
			c1,0,2,0,2.8,0c0.6,0.8,1,1.2,1.5,1.2c0.4,0,0.8-0.3,1.3-1c0.8-0.2,1.4-0.2,1.8-0.2c0.3,0,0.7,0,1.2,0.1c0.7-0.6,2.1-1.3,4.2-2.2
			c0.8-0.3,2.2-1.8,4.2-4.5c1-1.4,1.5-2.2,1.5-2.5l1.4-3.7c1-1,1.5-1.7,1.5-2c0-0.2-0.2-1.3-0.5-3.4c0-0.2,1.1-1.5,3.5-4.1l0,0
			l-2.6-3.7l0.1-0.1c0.8-0.9,1.3-1.6,1.3-2.1c0-0.2,0-0.5,0-0.8c-0.7-0.6-1.1-1.1-1.1-1.5v0l0.2-1.5l0-2.5l0.1-1.4
			c-0.1-1.3-0.1-2.1-0.1-2.4c0-1.5,0.2-2.6,0.7-3.3l1,0.2c0.2-0.5,0.2-0.9,0.2-1.1c0-0.1,0-0.3-0.1-0.6c-0.5,0.1-0.8,0.1-1.2,0.1
			c-0.6,0-0.9-0.3-0.9-0.9c0-0.2,0-0.6,0.1-1.1c0.1-0.4,0.1-1,0.1-1.8c0-1,0-1.9-0.1-2.6c-0.1-0.5-0.1-0.8-0.1-1.1
			c0-0.3,0.1-0.6,0.4-1.1l1.1,0.3c0.2-0.4,0.3-0.7,0.3-0.9c0-0.3-0.2-0.9-0.6-1.9c-0.2-0.5-0.7-1-1.5-1.5c0.2-0.9,0.2-1.7,0.2-2.6
			c0-0.9,0-2.2-0.1-4.1h1.4c0.2-0.6,0.3-1.1,0.3-1.5c0-0.2,0-0.4-0.1-0.8h-1.6l-0.4-1.3v0c0-0.2,0.2-0.8,0.4-2
			c0.7-1,1.1-1.7,1.1-1.9c0-0.1-0.2-0.7-0.5-1.8l-0.2-1.4l-1-1.4c-0.3-4.5-0.5-6.9-0.5-7c-0.2-0.4-0.7-0.8-1.3-1.3
			c0.4-0.7,0.7-1.1,0.9-1.2l1.4-0.5c0.4-0.4,1.9-1.4,4.3-2.9c0.3-0.2,0.6-0.3,0.9-0.3c0.2,0,0.5,0,0.8,0c0.3,0.5,0.5,0.8,0.4,0.9
			l-0.3,1.9l0.2,1.6l-0.1,3v2.7c-0.7,1.5-1,2.4-1,2.6c0,0.2,0,0.3,0,0.4c0,0.4,0,0.6,0,0.7c0,0.2,0,0.5-0.1,0.9
			c1.1,0.3,1.6,0.7,1.6,1.1c0,0.3-0.1,0.9-0.4,1.8c-0.2,0.4-0.2,0.9-0.2,1.6l0.2,7l0,0.1v0.1c0,0.1,0,0.2-0.1,0.3
			c-0.2,0.5-0.3,1.1-0.3,1.9c0,0.1,0.1,0.7,0.2,1.7v0.3c0,0.3,0,0.5,0,0.7c0,1.1,0,1.8,0,1.9c0,0.3,0.1,0.9,0.2,1.8
			c0.1,0.7,0.2,1.6,0.2,2.5l0.2,6.7l0,0.9c0,0.4-0.2,1.2-0.6,2.3c-0.1,0.3-0.1,0.6-0.1,1c0,0.3,0.3,1.2,0.8,2.9l-0.1,1.6
			c-0.1,3.4-0.2,5.4-0.3,6c-0.1,0.6-0.3,1.4-0.5,2.4l-1.3,0.5c0,0.6,0.1,1,0.2,1.3c0.3,0.6,0.4,0.9,0.4,1.1c0,0.1-0.1,0.4-0.3,1
			c-0.1,0.9-0.4,2-0.7,3.5c-0.5,2-0.9,3.5-1.3,4.3c-0.2,0.5-0.7,1.5-1.5,3.1c-0.5,0.1-0.8,0.2-0.8,0.3l-0.2,0.6
			c0,0.1-0.1,0.2-0.3,0.4c-0.2,0.2-0.5,0.6-0.8,1.2c-1.3,2.1-2.1,3.4-2.5,3.9l-2.1,2.1l-1.5,1.7c-1.5,0.8-2.4,1.3-2.6,1.5
			c-0.3,0.2-0.6,0.7-1.1,1.3c-0.4-0.2-0.7-0.2-0.8-0.2c-0.2,0-1.4,0.3-3.4,1c-0.4,0.2-1.1,0.3-2.2,0.3c-0.8,0.1-2.2,0.3-4.3,0.6
			l-1.7,0h-0.8c-1,0-2-0.5-3.1-1.6c-1.3-1.2-1.9-2.1-2-2.5L232.8,139.6z M258.3,38.2c0.6-1.6,1.7-2.9,3.5-4.1c0.2-0.6,0.3-0.9,0.4-1
			l1.1-1.4c1.5-1.9,2.6-2.8,3.2-2.8c0.4,0,0.6,0.4,0.7,1.2c0.6,0.4,0.9,0.7,1,0.8c0.2,0.1,0.2,0.6,0.2,1.5l-2.4,1.7l-6.6,4.7
			L258.3,38.2z"/>
		<path fill="#FFFFFF" stroke="#FFFFFF" stroke-width="2" d="M291.3,70.8l-1.5,0.8c0.2,0.8,0.3,1.4,0.4,1.7c0.1,0.3,0.1,0.5,0.1,0.6
			c0,0.2-0.1,0.6-0.2,1.3c-0.2,0.7-0.2,2-0.2,3.8c0,0.3,0.2,0.8,0.6,1.7l-0.1,1.6l0.1,1.9c0.1,1.7,0.7,2.9,1.8,3.6
			c0.4,0.3,2.1,0.8,4.9,1.7c1.1,0.3,2,0.5,2.6,0.5c1.7,0,2.8-0.2,3.2-0.7l2-1.9c0.1-0.2,0.5-0.4,1.2-0.7c0.6,0.5,1,0.7,1.5,0.7
			c0.2,0,0.4,0,0.6,0c0.3-0.7,0.6-1.1,0.8-1.4c0.1-0.1,0.5-0.3,1.4-0.8c0.1-0.1,0.7-1,1.8-2.6c1-0.8,1.5-1.3,1.5-1.3
			c0.1-0.2,0.4-0.8,0.8-2c0.3-0.8,0.5-1.5,0.5-2.1v-0.1c-0.1-0.7-0.1-1.2-0.1-1.4v-0.1c0-0.2,0.1-0.8,0.4-1.7l-0.8-0.4l-0.3-0.7
			v-7.1c0-0.7-0.2-2.1-0.5-3.9c0-0.1,0-0.1,0-0.2c0-0.4,0.3-0.9,1-1.6c-0.1-0.4-0.2-0.6-0.4-0.7l-0.6-0.2c-0.1-0.1-0.1-0.5-0.1-1.4
			c0-0.1,0-0.3,0.1-0.6c0.1-0.6,0.2-1.2,0.3-1.8c0.6,0.2,0.9,0.3,1.1,0.3c0.3,0,1.3-0.3,2.9-1c0.4-0.2,1.1-0.4,2-0.6
			c0.6,1.6,0.8,2.7,0.8,3.2l-0.3,5.5v3.2c-0.3,2.5-0.5,4-0.6,4.6l-1-0.3c-0.3,0.7-0.5,1.2-0.5,1.6c0,0.2,0,0.4,0,0.7l1.6-0.1
			c0.1,0.6,0.1,1,0.1,1.3l0,1.3v0.5v1.6v0.7c0,1.2-0.1,2.4-0.4,3.6c0.5,0.5,0.7,0.8,0.8,1c0.1,0.3,0.1,1.1,0.2,2.4
			c0,0.8,0.2,1.5,0.6,2.1c0.2,0.3,0.7,0.6,1.4,0.9c-0.2,0.5-0.5,0.9-0.8,1.1c-0.2,0.1-1,0.5-2.6,1.1c-1.5,0.9-2.4,1.3-2.7,1.3
			c-0.3,0-0.6-0.2-0.9-0.5c-0.4-0.6-0.6-1.3-0.6-2.1c0-0.4,0-0.9,0-1.5c-0.6-0.1-1.2-0.2-1.6-0.2c-0.2,0-0.5,0-0.7,0.1
			c-0.1,0-0.5,0.4-1.3,1.2l-1,0.4l-1.6,0.9l-1.5,0.5c-2.1,1-4.2,1.6-6.5,1.7c-1.1,0.3-1.8,0.5-2.1,0.5c-0.2,0-0.8-0.2-1.9-0.6
			c-0.1,0-0.2,0-0.3,0c-0.3,0-0.9,0.2-1.8,0.7l-1.4-1.7l-0.1,0c-0.1,0-0.7,0.2-2.1,0.6c-0.2,0.1-0.5,0.1-0.7,0.1
			c-0.5,0-1.4-0.4-3-1.3c-0.7-0.4-1.3-1-1.8-1.8c-0.7-1.2-1-2.4-1-3.4c0-0.3,0.2-0.8,0.7-1.4l-1.1-0.5v-5.6c0.7-0.7,1-1.2,1-1.6
			c0-0.1-0.2-0.7-0.7-1.6v-3.4l-0.1-2.4c0-0.4,0.3-0.8,0.8-1.4v-0.7l-1.2,0.4c0.2-1.9,0.3-3.2,0.3-4.1c0-0.5,0-1,0-1.5l-0.1-1.1
			c0-0.9-0.1-1.5-0.2-1.7l-0.5-1.4c0.1-0.3,0.6-0.6,1.5-0.9c0.6-0.2,1.7-0.6,3.3-1.2l0.4-0.1c0.6-0.4,1-0.6,1.2-0.6
			c0.4,0,0.7,0.1,0.9,0.3c0.1,0.2,0.4,0.8,0.7,1.9c0,0.1-0.1,0.4-0.4,1.1c-0.3,0.7-0.4,2-0.4,3.8c0,0.3,0.1,1.1,0.3,2.2
			c-0.6,1.9-0.8,3-0.8,3.4C290.2,68,290.6,69.3,291.3,70.8z"/>
	</g>
	<g>
		<defs>
			<circle id="SVGID_3_" cx="68.5" cy="73.3" r="50"/>
		</defs>
		<clipPath id="SVGID_4_">
			<use xlink:href="#SVGID_3_"  overflow="visible"/>
		</clipPath>
		<g clip-path="url(#SVGID_4_)">
			<circle fill="#F26722" cx="68.5" cy="73.3" r="50"/>
			<g>
				<path fill="#FFFFFF" stroke="#FFFFFF" stroke-width="3" d="M36.5,33.2l4.8-3.3l0.4,0.1c1.3-0.8,2.3-1.6,3-2.4l0.8,0.2
					c0.2,0,0.4,0,0.6,0c0.1,0,0.2,0,0.3,0c0.3,0,0.6,0.1,0.9,0.4c0.3,0.3,0.4,0.6,0.4,0.9l-0.1,1.6v2.3c-0.3,1.6-0.4,2.6-0.4,3
					c0,0.6,0.1,1.5,0.3,2.8L46,40.6l-1.3-0.2l0.2,1.3V43l0.3,0.8h0.2l0.9-0.7c0.3,0.5,0.5,0.8,0.5,1.1c0,0.1,0,0.3-0.1,0.6
					c-0.1,0.3-0.1,0.5-0.1,0.7l0.1,9.4l-0.1,2c0,2.2-0.1,3.4-0.3,3.5l-1.1,1c-0.2,0.2-0.2,0.4-0.2,0.7c0,0.5,0.3,1,1,1.6
					c0.1,0.7,0.3,1.4,0.8,2.2l-0.4,1.6l0.1,1.5l-0.1,2.4c0.1,1.6,0.2,2.8,0.2,3.7l0.7,0.3v0.9l0.3,0.3c1.4-0.6,2.3-1,2.4-1.1
					c1.8-1.3,3-2.1,3.5-2.4l0.2,0.1l1.4-1.7l7-7.3l0.7-1.5l4.9-6.2c0.5-0.7,1.1-1.3,1.7-1.9c0.5-0.5,1.3-1.5,2.4-3L71.4,51v0
					c0.5-1.1,1.7-2.8,3.7-5.2l0.8-0.2c0.1-0.6,0.4-1.3,1-2.2l0.9-1.6l0.8-1.2l1.3-2.3c0.9-0.9,1.7-1.9,2.3-3c0.7-1.2,1.2-2,1.6-2.6
					c0.8-0.1,1.4-0.3,1.5-0.4l1-0.8c0.9-0.7,1.4-1,1.5-1.1c0.1-0.1,0.3-0.1,0.7-0.1c0.3,0,0.7-0.2,1.3-0.7c0.7-0.5,1.2-0.8,1.7-0.8
					l0.4,0.7v0c0,0.2-0.3,0.8-1,1.7c-0.6,1.3-1,2-1,2l-1.5,1.3c-1.4,1.8-2.2,2.8-2.4,3.2c-0.4,0.9-0.9,1.6-1.3,2.1l-2.9-0.3
					l-0.1,2.1l0.8,0.3c0,0.8-0.2,1.4-0.6,1.9c-0.3,0.4-0.8,0.9-1.5,1.6c-0.1,0.4-0.3,0.8-0.5,1c-0.3,0.4-0.7,0.8-1,1.1l-1.5,1.1
					c-0.4,1.1-0.6,1.7-0.7,1.9c-0.1,0.1-0.4,0.3-0.9,0.7c0,0.6-0.1,1-0.2,1.2c-0.1,0.3-0.6,0.7-1.5,1.5c-1.6,1.6-3.3,3.7-5.3,6.4
					l-2.5,2.8c-1.3,1.8-2.3,2.9-2.9,3.5l-0.3,1.3c-0.8,0.4-1.2,0.7-1.4,0.9c-0.2,0.2-0.7,1-1.5,2.5c-0.9,0.6-1.4,0.9-1.5,1
					c-0.1,0.1-0.3,0.5-0.5,1.2l-1.3,0.1c-0.3,0.4-0.5,0.7-0.6,0.8c-0.5,0.5-0.7,0.9-0.7,1c0,0,0,0.1,0,0.1l0,0.2l4.5,5.3
					c1,1.1,1.5,2.1,1.5,3c0,0.2,0,0.4,0,0.7c0.7,0,1.2,0,1.5,0.1c0.3,0.1,0.9,0.5,1.6,1.3c0.8,0.7,1.3,1.4,1.6,2
					c0.4,0,0.8,0.2,1.1,0.4c1.2,0.9,1.8,1.6,1.8,2.2c0,0.3-0.1,0.7-0.4,1.2c0.5,0.4,1.2,0.9,2.1,1.4l1.4,0.9l1.1,0.3
					c0.1-0.1,0.5,0.2,1.1,1h1c0.9,1.1,2.3,2.3,4.1,3.6l5.9,4.2L87,104c0,0.3,0,0.5,0,0.8c0,0.5,0.3,0.8,0.8,0.9
					c0.5,0.1,1,0.2,1.3,0.3v0.8c0.2,0.1,0.6,0.3,1.3,0.4c0.7,0.3,1.5,0.5,2.4,0.7c0.8,0.2,1.5,0.6,2.2,1.2c3.5,2.1,5.3,3.2,5.3,3.3
					c0.2,0.2,0.4,0.7,0.5,1.4c0.9,0.2,1.7,0.5,2.4,0.9l1-0.8c0.8,0.3,1.8,0.6,3,0.9c1.2,0.3,2.3,0.4,3.2,0.4c0,0,0.1,0,0.2,0
					l3.3-0.5c0.1,0,0.2,0.1,0.4,0.4l0.1,0.4c0.2,1.4-1.3,2.5-4.4,3.1l-0.8,1c-0.9,0.1-1.5,0.2-1.8,0.3c-0.1,0-0.6,0.3-1.5,0.8
					l-1-0.1c-0.9-0.1-1.4-0.2-1.5-0.2c-0.1,0-0.4-0.2-0.8-0.5l-1.7,0.2c-0.9-0.8-1.6-1.3-2-1.5c-0.3-0.2-1.1-0.7-2.5-1.3
					c-0.8-0.5-1.5-0.8-2-0.9c-0.4-0.1-1.1-0.4-2-0.9c-1-0.6-1.6-1-1.8-1c-0.9-0.4-1.4-0.7-1.5-0.8l-1-1.1l-0.8-0.4
					c-0.7-0.7-1.3-1.1-1.9-1.4c0.1-0.4,0.1-0.8,0.1-1.1c0-0.2-0.1-0.4-0.2-0.6c-0.4-0.5-1-0.7-1.7-0.7c-0.2,0-0.8,0.2-2,0.6
					c-0.1,0-0.1,0-0.1,0c-0.6,0-1.1-0.4-1.6-1.2c-0.1-0.2-0.3-0.8-0.5-1.7c-0.1-0.3-0.3-0.6-0.6-0.8c-0.3-0.2-0.5-0.3-0.6-0.3
					l-1.2,0.2c-0.1,0-0.1,0-0.2,0c-0.5,0-1.6-0.6-3.3-1.9c-0.5-0.4-1.9-1.4-4.1-3.1l-2.2-2.3c-0.5-0.5-0.8-0.8-0.9-0.9
					c-0.3-0.3-0.7-0.6-1.4-0.9c-1.2-0.8-2.6-1.7-4.4-2.8c0.2-0.8,0.4-1.5,0.7-2.1c-1.3-0.5-2-0.8-2.3-0.8c-0.2,0-0.4,0-0.7,0
					c-0.5-0.4-1.1-1-1.9-1.6l-2-2.2c-0.7-0.7-1-1.1-1.2-1.3c-0.2-0.3-0.4-0.8-0.7-1.5c-0.7,0-1.2-0.1-1.5-0.2
					c-0.4-0.2-1.2-0.8-2.3-2c-0.4-0.4-0.9-0.6-1.5-0.6c-0.4,0-0.8,0.1-1.1,0.4c-0.3,0.3-0.4,0.6-0.4,1c0,0.1,0,0.2,0,0.3l1.1-0.1
					c0,0.4,0,0.7,0,0.9c0,0.3-0.1,0.8-0.2,1.7c0,0.3,0,0.5,0,0.8c0,0.2,0.1,1.2,0.3,3v1.7l0,1.5c0,0.3-0.1,0.5-0.3,0.7
					c-0.3,0.3-0.5,0.5-0.5,0.7c-0.1,0.4-0.2,0.8-0.4,1.4c0.7,0.1,1.1,0.3,1.4,0.6c-0.3,1.3-0.5,3.6-0.5,6.8c0,0.6-0.2,0.9-0.6,0.9
					c-0.3,0-0.7-0.2-1.1-0.7h-0.4c-0.2,0.2-0.2,0.3-0.2,0.5c0,1.2,0.7,1.8,2.2,1.8c0.1,0.3,0.2,1.1,0.2,2.4l0,0.8
					c0,0.3-0.3,0.8-0.7,1.4l-0.9,0.6l0.4,1.3c0.5-0.4,0.8-0.7,1.1-0.7c0.3,0,0.5,0.7,0.5,2.2c0,0.3,0,0.6,0.2,1.1
					c0.1,0.5,0.2,0.8,0.2,1.1c0,0.1,0,0.2,0,0.4c-0.9,0.5-1.4,1.1-1.7,1.7c-1,0-1.9,0.3-2.5,0.9l0.2,0.6c-1.3,0.4-2.2,0.8-2.7,1.2
					c-1,0.8-1.6,1.2-1.9,1.2c-0.3,0-0.8-0.1-1.3-0.3c0.2-0.8,0.3-1.4,0.3-1.7v-0.1c0-0.2,0-0.3,0-0.5l0-0.3l4.9-2.8l-4.5-2.5
					l0.4-0.3c0.6-0.5,0.9-1,0.9-1.5l-0.1-1.9l3.9-2L40,105l0.1-1.7l0-4.5l0.1-1.1c-0.4-0.8-0.6-1.3-0.6-1.5c0-0.2,0-0.5,0.1-0.8
					c0.5-1.8,0.7-2.7,0.7-2.9l0.3-7.1l2.5-2.8c-1.3-0.7-2.2-1.4-2.8-2l0.3-0.3h0.4l0.3,0.3h0.2v-0.4c0.5-0.5,0.8-1,0.9-1.6l-1.5,0.2
					c-0.3-2.4-0.5-4.3-0.5-5.8l0.2-2.6v0l-0.1-1.7l0.1-0.8c0-1.4,0.1-2.3,0.2-2.5c0.3-0.4,0.4-0.8,0.4-1.2l-1.4-0.7
					c0.3-0.6,0.4-1.5,0.4-2.6l0-1.3l-0.1-1.5c0-1.8,0-2.9-0.1-3.3c-0.1-0.5-0.4-1-0.8-1.6c0.2-0.5,0.4-0.9,0.4-1.1
					c0.1-0.4,0.3-0.7,0.5-0.9c-0.2-0.4-0.3-0.8-0.3-1.3c0.3-0.3,0.7-0.5,1.1-0.6v-2c-0.4,0.4-0.8,0.6-1.2,0.7
					c-0.1-0.5-0.2-1.5-0.3-3c-0.1-2.1-0.3-3.7-0.5-4.9c0.4-0.4,0.7-0.8,0.8-1.3C39.4,38,39,37.2,39,36.5c0-0.4,0.1-1,0.2-1.8
					c-1.7-0.2-2.6-0.5-2.6-1.2L36.5,33.2z"/>
			</g>
		</g>
	</g>
</g>
</svg>
