<?xml version="1.0" encoding="utf-8"?>
<!-- Generator: Adobe Illustrator 18.1.1, SVG Export Plug-In . SVG Version: 6.00 Build 0)  -->
<!DOCTYPE svg PUBLIC "-//W3C//DTD SVG 1.1//EN" "http://www.w3.org/Graphics/SVG/1.1/DTD/svg11.dtd">
<svg version="1.1" xmlns="http://www.w3.org/2000/svg" xmlns:xlink="http://www.w3.org/1999/xlink" x="0px" y="0px"
	 viewBox="0 0 930 210" enable-background="new 0 0 930 210" xml:space="preserve">
<g id="Fonts" display="none">
	
		<text transform="matrix(1 0 0 1 202.5063 184.5727)" display="inline" fill="#534741" font-family="'Optimum-BoldItalic'" font-size="216" letter-spacing="-4">Memba</text>
	<g display="inline">
		<defs>
			<circle id="blue_ball_2_" cx="118.9" cy="110.6" r="75"/>
		</defs>
		<clipPath id="blue_ball_5_">
			<use xlink:href="#blue_ball_2_"  overflow="visible"/>
		</clipPath>
		<circle id="blue_ball_3_" clip-path="url(#blue_ball_5_)" fill="#428BCA" cx="118.9" cy="110.6" r="75"/>
		<g id="m_wave_1_" clip-path="url(#blue_ball_5_)">
			<text transform="matrix(1 0 0 1 44.8862 153.1039)" fill="#FFFFFF" font-family="'Mistral'" font-size="250">m</text>
		</g>
	</g>
</g>
<g id="Paths">
	<g>
		<path fill="#534741" d="M244.6,39.6c3.6,0.6,6.6,0.9,9.1,0.9l12.4-0.9l7.6,27.6l10.1,33.7l12.5,39.7l22.2-28.5l54.6-72.6
			c4,0.6,7.4,0.9,10.2,0.9c2.7,0,6.7-0.3,11.9-0.9L384.4,88l-6,30l-11.7,67.4c-2.9-0.3-5.6-0.5-8.3-0.6c-2.7-0.1-5.6-0.2-8.7-0.2
			c-2.4,0-4.6,0-6.4,0c-1.8,0-4.8,0.3-9,0.9c4-16.4,7.7-32.7,10.9-48.9c3.2-16.2,5.7-31.6,7.5-46.3c-12.5,15.1-25.9,32.3-40.1,51.6
			c-14.2,19.3-24.2,34.9-29.9,46.7h-3.5h-3.5c-2.6-11.8-5.2-23.4-7.9-34.6c-2.7-11.2-5.8-23-9.3-35.2c-3.5-12.3-7-22.6-10.5-31.1
			l-6.7,24.9l-6.9,26l-10.8,47.1c-3.9-0.6-7-0.9-9.3-0.9c-1.9,0-4.3,0.3-7.2,0.9l9.3-31.3l17.3-68L244.6,39.6z"/>
		<path fill="#534741" d="M474.2,184.6c-8.2,2.6-16.1,3.9-23.8,3.9c-16.4,0-29.5-4.5-39.1-13.6c-9.6-9.1-14.5-21.4-14.5-36.9
			c0-16.7,5-30.4,15.1-41c10.1-10.7,23.1-16,39.1-16c13.1,0,23.4,3.4,30.9,10.3c7.5,6.9,11.2,16.4,11.2,28.4c0,3.2-0.1,5.6-0.2,7.3
			c-0.1,1.7-0.6,5.5-1.5,11.4l-26.6-0.4l-36.9,0.4c-0.6,3.9-0.9,6.9-0.9,9.1c0,9.1,2.7,16.5,8.2,22.2c5.5,5.6,12.7,8.5,21.8,8.5
			c7.1,0,14-2.3,20.7-6.9l3,1.9c-0.9,1.3-2,3.2-3.5,5.7C476,181.4,475,183.3,474.2,184.6z M453.3,90.6c-6.2,0-11.2,3-15.1,8.9
			c-3.9,5.9-7.1,15.4-9.5,28.5l22.5,0.4l13.2-0.4c0.7-2.9,1.3-6.3,1.7-10.3c0.4-4,0.6-7.9,0.6-11.6
			C466.7,95.8,462.2,90.6,453.3,90.6z"/>
		<path fill="#534741" d="M518.3,83.3l13.6,0.9l15-0.9c-0.9,2.9-1.6,5.4-2.2,7.7c-0.6,2.2-1.2,5-1.7,8.3c5.6-6.5,11.3-11.2,16.9-14
			c5.6-2.9,12-4.3,19.1-4.3c14,0,22.4,6.6,25.1,19.9c11-13.2,23.3-19.9,36.8-19.9c8,0,14.4,2.3,19.2,6.8c4.8,4.5,7.2,10.5,7.2,17.8
			c0,4.5-0.4,8.8-1.3,13.1c-1.7,6.5-3.2,12.3-4.3,17.5l-9.9,49.4c-3.4-0.4-6.1-0.7-8-0.9c-1.9-0.1-4.6-0.2-8.2-0.2
			c-4.3,0-9.3,0.4-15.1,1.1c3.7-12.6,7.6-26.2,11.6-40.6c4-14.4,6-26.5,6-36.1c0-3.6-1-6.5-3-8.6c-2-2.2-4.9-3.2-8.6-3.2
			c-6.6,0-12.3,3.4-17.2,10.3c-4.9,6.9-9.1,18.2-12.7,33.9c-3.6,15.7-6.4,30.5-8.2,44.3c-3.3-0.4-6.2-0.7-8.6-0.9
			c-2.4-0.1-5-0.2-7.8-0.2c-3.9,0-8.6,0.4-14,1.1c3.7-12.9,7.7-27,11.9-42.1s6.3-27,6.3-35.7c0-7.2-3.9-10.8-11.7-10.8
			c-5.8,0-10.8,2.3-15.2,6.8c-4.3,4.5-7.9,11.2-10.7,20.1s-5.3,18.8-7.6,29.6c-2.3,10.8-4.1,21.5-5.3,32c-3.2-0.4-5.7-0.7-7.7-0.9
			c-2-0.1-4.3-0.2-7-0.2c-4.3,0-9.5,0.4-15.4,1.1l12.9-53.5l6-27.8L518.3,83.3z"/>
		<path fill="#534741" d="M682.1,162.6l6.4-29.3l7.5-36.5l7.5-38.8c1.1-6.5,2.2-12.5,3.2-18c1-5.5,1.5-10.6,1.5-15.2
			c3,0.4,5.3,0.7,6.9,0.9c1.6,0.1,4,0.2,7.4,0.2c5,0,10.7-0.4,17.1-1.1l-15.8,68.7c7.5-8.4,17.1-12.5,28.9-12.5
			c11.1,0,20,3.7,26.7,11.1c6.7,7.4,10,17.5,10,30.1c0,16.6-5.1,31.8-15.3,45.6c-10.2,13.8-23.4,20.7-39.5,20.7
			c-14.3,0-24.8-5.7-31.5-17.1c-7.2,3.9-14.9,8.9-23,15.1h-4.1L682.1,162.6z M741.6,94.5c-9.2,0-16.5,7.5-21.7,22.6
			c-5.3,15-7.9,28.7-7.9,40.9c0,6.2,1.5,11.1,4.6,14.8c3.1,3.7,7.2,5.5,12.2,5.5c9.6,0,17.2-7.5,22.6-22.5c5.4-15,8.1-27.4,8.1-37.4
			c0-7.5-1.6-13.4-4.8-17.6C751.6,96.6,747.3,94.5,741.6,94.5z"/>
		<path fill="#534741" d="M871.9,187.6c-10.5,0-17.3-5.3-20.3-15.8c-6.3,11.1-15.7,16.6-28.1,16.6c-8.8,0-15.8-2.5-21-7.6
			c-5.2-5-7.8-11.8-7.8-20.3c0-9.6,3.2-17.4,9.5-23.3c6.3-5.9,14.1-9.4,23.2-10.5c9.1-1.1,16.9-2,23.2-2.7c5.9-1.9,8.9-6.1,8.9-12.7
			c0-11.1-6.5-16.6-19.5-16.6c-7.5,0-14.6,2.7-21.4,8h-1.1l1.1-12.1c11.5-6.5,23.5-9.7,35.9-9.7c22.8,0,34.1,8.4,34.1,25.2
			c0,4.9-0.6,9.9-1.7,15.1l-6.7,29.8c-1.7,6.9-2.6,12.2-2.6,16.2c0,5.6,1.9,8.4,5.8,8.4c0.7,0,1.9,0.5,3.5,1.5l1.7,4.8
			C883.3,185.7,877.6,187.6,871.9,187.6z M835.6,174c7.3,0,12-3.2,14-9.7c2-6.5,4.4-17.5,7.1-33c-12.2,2-20.7,4.6-25.5,7.9
			c-4.8,3.2-7.2,10.3-7.2,21.3C823.9,169.5,827.8,174,835.6,174z"/>
	</g>
	<g>
		<defs>
			<circle id="blue_ball_1_" cx="118.9" cy="110.6" r="75"/>
		</defs>
		<clipPath id="blue_ball_6_">
			<use xlink:href="#blue_ball_1_"  overflow="visible"/>
		</clipPath>
		<circle id="blue_ball_4_" clip-path="url(#blue_ball_6_)" fill="#428BCA" cx="118.9" cy="110.6" r="75"/>
		<g clip-path="url(#blue_ball_6_)">
			<path fill="#FFFFFF" d="M40.5,116.7c0.5-0.6,1.1-1.3,1.7-2.3c0.7-0.9,1.4-2,2.2-3.1c3.6-4.5,7.1-8.5,10.4-12s6.6-6.7,9.6-9.5
				c1.5-1.5,3.4-3.4,5.6-5.7c2.2-2.3,4.8-5,7.7-8c2.9-1.1,6.2-2.4,9.7-3.9c2.2,0,3.8,0.7,4.9,2.1c1.1,1.4,1.6,3.5,1.6,6.2
				c0,2.3-0.2,4.7-0.5,7.4c-0.4,2.6-0.9,5.4-1.5,8.1c-0.7,2.2-1.3,4.3-1.8,6.3c0,0.6,0.1,1,0.4,1.3c0.2,0.3,0.7,0.4,1.2,0.4
				c1.2-0.6,3.6-2.6,7.1-6.1c3.5-3.5,8.1-8.4,13.8-14.6c4.9-5.4,9.2-9.4,12.8-12c3.7-2.6,6.6-4,8.8-4c2.4,0,4.1,0.9,5.2,2.6
				c1.1,1.8,1.6,4.3,1.6,7.8c0,5-0.4,9.7-1.1,14.3c-0.7,4.6-2,9-3.8,13.2c-0.3,0.8-0.5,1.5-0.6,2.1c-0.1,0.6-0.1,1.1-0.1,1.6
				c0,0.6,0.5,1.1,1.5,1.6c0.6-0.6,1.4-1.4,2.3-2.4c0.9-1.1,1.9-2.4,3-4c1.9-1.5,3.7-3.1,5.6-4.6c1.9-1.5,3.9-3.1,6.1-4.8
				c2.3-1.8,4.6-3.2,7-4.1c2.4-0.9,4.7-1.4,7-1.4c0.4,0,0.8,0.1,1.2,0.4s0.8,0.5,1.2,0.9c1.9,1.6,3.4,3.1,4.6,4.5
				c1.2,1.3,2.1,2.5,2.6,3.5c3.2,6.5,6,11.4,8.5,14.6c2.5,3.2,4.7,4.8,6.5,4.8c0.4,0,0.8-0.1,1.2-0.3c0.4-0.2,0.8-0.5,1.2-0.8
				c1.9,4,3.5,7.7,4.8,11.2c-2.9,2.3-5.5,4-7.8,5.2c-2.3,1.2-4.3,1.8-6,1.8c-5.6,0-11.4-3.6-17.4-10.9c-6-7.3-10.6-10.9-13.7-10.9
				c-4.2,0-11.3,6.2-21.1,18.7c-9.8,12.5-16,18.7-18.4,18.7c-1.2,0-2.8-0.1-4.9-0.4c-0.7-0.2-1.1-0.8-1.5-1.5
				c-0.3-0.8-0.5-1.7-0.5-2.7c0-1.2,0.2-2.8,0.7-4.8c0.5-2,1.1-4.3,2-7c1.1-3.4,1.9-6.1,2.6-8.2c0.7-2,1-3.5,1.1-4.3
				c0.2-1.1,0.6-3.1,1-6.2c0.4-3.1,1-7.2,1.8-12.3c0-0.9-0.2-1.6-0.7-2.1s-1.1-0.7-1.7-0.7c-0.6,0-1.2,0.2-1.9,0.5
				c-0.7,0.4-1.5,1-2.4,1.8c-1,1.1-2.1,2.1-3.2,3.2c-1.2,1.1-3.1,2.6-5.7,4.5c-2.8,3.3-5.8,6.6-8.7,9.9c-3,3.4-6,6.8-9.1,10.2
				c-4.9,5.7-8.8,9.9-11.7,12.6c-2.9,2.7-4.7,4.1-5.6,4.1c-2.4,0-4.3-0.3-5.6-0.9c-1.3-0.6-1.9-1.4-1.9-2.6c0-2.7,1.4-8.3,4.3-16.8
				c2.9-8.5,4.3-14.5,4.3-18c0-0.6-0.2-1-0.5-1.4s-0.8-0.5-1.4-0.5c-1,0-2.1,0.5-3.5,1.6c-1.3,1.1-2.9,2.8-4.6,5.2
				c-1.1,1.3-2.5,2.8-4.2,4.5s-3.6,3.7-6,6c-0.2,0.7-0.6,1.3-1,1.9s-0.9,1.2-1.3,1.8c-0.3-1.2-0.9-2.7-1.7-4.5
				C42.9,121.7,41.8,119.4,40.5,116.7z"/>
		</g>
	</g>
</g>
</svg>
