<?xml version="1.0" encoding="utf-8"?>
<!-- Generator: Adobe Illustrator 18.1.1, SVG Export Plug-In . SVG Version: 6.00 Build 0)  -->
<!DOCTYPE svg PUBLIC "-//W3C//DTD SVG 1.1//EN" "http://www.w3.org/Graphics/SVG/1.1/DTD/svg11.dtd">
<svg version="1.1" xmlns="http://www.w3.org/2000/svg" xmlns:xlink="http://www.w3.org/1999/xlink" x="0px" y="0px"
	 viewBox="0 0 300 300" enable-background="new 0 0 300 300" xml:space="preserve">
<g id="Fonts">
	<g>
		<defs>
			<circle id="blue_ball_1_" cx="150" cy="150" r="145"/>
		</defs>
		<clipPath id="blue_ball_4_">
			<use xlink:href="#blue_ball_1_"  overflow="visible"/>
		</clipPath>
		<circle id="blue_ball" clip-path="url(#blue_ball_4_)" fill="#428BCA" cx="150" cy="150" r="145"/>
		<g id="m_wave" clip-path="url(#blue_ball_4_)">
			<text transform="matrix(1 0 0 1 6.7558 234.6922)" fill="#FFFFFF" font-family="'Mistral'" font-size="480">m</text>
		</g>
	</g>
</g>
<g id="Paths" display="none">
	<g display="inline">
		<defs>
			<circle id="blue_ball_2_" cx="150" cy="150" r="145"/>
		</defs>
		<clipPath id="blue_ball_5_">
			<use xlink:href="#blue_ball_2_"  overflow="visible"/>
		</clipPath>
		<circle id="blue_ball_3_" clip-path="url(#blue_ball_5_)" fill="#428BCA" cx="150" cy="150" r="145"/>
		<g clip-path="url(#blue_ball_5_)">
			<path fill="#FFFFFF" d="M-1.7,164.8c0.9-1.1,2-2.5,3.3-4.3c1.3-1.8,2.7-3.8,4.2-6c6.9-8.6,13.6-16.3,20.1-23.1
				c6.5-6.8,12.6-12.9,18.4-18.2c3-2.8,6.6-6.4,10.8-10.9c4.2-4.5,9.2-9.6,14.8-15.4c5.6-2.2,11.8-4.7,18.5-7.5
				c4.2,0,7.3,1.4,9.4,4.1c2,2.7,3,6.7,3,11.8c0,4.4-0.4,9.1-1.1,14.2c-0.7,5.1-1.7,10.3-2.9,15.6c-1.4,4.2-2.6,8.3-3.5,12.2
				c0,1.1,0.2,1.9,0.7,2.5c0.5,0.5,1.2,0.8,2.3,0.8c2.3-1.1,6.9-5,13.6-11.7c6.7-6.7,15.5-16.1,26.5-28.1
				c9.4-10.3,17.6-18,24.6-23.1c7-5.1,12.7-7.6,16.9-7.6c4.5,0,7.8,1.7,10,5c2.1,3.4,3.2,8.3,3.2,14.9c0,9.5-0.7,18.7-2.1,27.5
				c-1.4,8.8-3.8,17.3-7.3,25.4c-0.6,1.6-1,2.9-1.2,4c-0.2,1.1-0.2,2.1-0.2,3c0,1.1,0.9,2.1,2.8,3c1.2-1.1,2.7-2.7,4.3-4.7
				c1.6-2,3.6-4.6,5.7-7.7c3.6-3,7.2-5.9,10.8-8.9c3.6-3,7.5-6,11.7-9.1c4.4-3.4,8.8-6.1,13.3-7.9c4.5-1.8,9-2.7,13.3-2.7
				c0.8,0,1.6,0.2,2.3,0.7c0.8,0.5,1.6,1,2.3,1.6c3.6,3.1,6.6,6,8.9,8.6c2.3,2.6,4,4.8,4.9,6.7c6.1,12.5,11.5,21.8,16.3,28
				c4.8,6.2,8.9,9.3,12.5,9.3c0.8,0,1.6-0.2,2.3-0.6c0.8-0.4,1.6-0.9,2.3-1.5c3.6,7.7,6.6,14.8,9.1,21.6c-5.6,4.4-10.6,7.7-15,10
				c-4.4,2.3-8.2,3.4-11.5,3.4c-10.8,0-21.9-7-33.4-21c-11.5-14-20.3-21-26.3-21c-8.1,0-21.6,12-40.5,36c-18.9,24-30.7,36-35.4,36
				c-2.3,0-5.5-0.2-9.4-0.7c-1.3-0.5-2.2-1.4-2.8-2.9c-0.6-1.5-0.9-3.2-0.9-5.3c0-2.3,0.5-5.4,1.4-9.3c0.9-3.8,2.2-8.3,3.8-13.5
				c2-6.6,3.7-11.8,4.9-15.7c1.2-3.9,2-6.6,2.1-8.2c0.5-2,1.1-6,2-12c0.9-5.9,2-13.8,3.4-23.7c0-1.7-0.5-3-1.4-4s-2-1.4-3.3-1.4
				c-1.1,0-2.3,0.4-3.6,1.1c-1.3,0.7-2.9,1.8-4.6,3.4c-1.9,2-3.9,4.1-6.2,6.1c-2.3,2-5.9,4.9-10.9,8.7c-5.5,6.3-11.1,12.6-16.8,19.1
				c-5.7,6.5-11.5,13-17.5,19.6c-9.4,10.9-16.8,19-22.4,24.3c-5.5,5.2-9.1,7.9-10.7,7.9c-4.7,0-8.3-0.5-10.7-1.6
				c-2.4-1.1-3.6-2.7-3.6-4.9c0-5.2,2.8-15.9,8.3-32.2c5.6-16.3,8.3-27.9,8.3-34.6c0-1.1-0.4-2-1.1-2.7s-1.6-1.1-2.7-1.1
				c-1.9,0-4.1,1.1-6.7,3.2s-5.5,5.4-8.8,10c-2.2,2.5-4.9,5.4-8,8.7s-7,7.1-11.5,11.5c-0.5,1.3-1.1,2.5-1.9,3.6s-1.6,2.3-2.6,3.4
				c-0.6-2.3-1.7-5.2-3.3-8.7C2.9,174.3,0.8,170-1.7,164.8z"/>
		</g>
	</g>
</g>
</svg>
