<svg id="Layer_1" data-name="Layer 1" xmlns="http://www.w3.org/2000/svg" viewBox="0 0 1024.34 1024.34"><title>Google+</title><rect width="1024.34" height="1024.34" style="fill:#cc3732"/><path d="M495.2,160.53c6.43,4,13.61,9.77,21.62,17.41a186.5,186.5,0,0,1,22.57,29.38,195,195,0,0,1,18.78,38.82q6.73,22.37,6.72,52.26Q564,353.13,540.7,386a272.91,272.91,0,0,1-24.15,29.36q-14.17,13.39-30.07,27.36a139.82,139.82,0,0,0-16.86,21.41A47.51,47.51,0,0,0,460.49,493c0,10.68,3.12,19.44,9.36,26.4a200.81,200.81,0,0,0,15.44,17.44l34.62,28.36a349.25,349.25,0,0,1,56.57,58.21q22.9,32.39,23.89,84.6,0,74.18-65.52,131.43-67.84,59.25-196,61.21-107.21-1-160.08-45.67-53.3-41.77-53.35-99.87,0-28.28,17.39-63.11,16.79-34.73,61-61.08a318.17,318.17,0,0,1,104.11-37.76q54-7.91,89.74-8.93a218.93,218.93,0,0,1-19.67-31q-10.07-16-10-38.51c0-9,1.26-16.56,3.81-22.53,2.24-6.37,4.34-12.15,6.24-17.52a291.73,291.73,0,0,1-32.77,2q-81.51-1-124.21-51.26-44.76-46.84-44.76-109,0-75.2,63.38-136.38,43.49-35.79,90.39-46.78,46.44-9.46,87-9.45h204l-63,36.79H495.2Zm39.39,587.32q0-38.87-25.31-67.68-26.83-27.37-83.82-67.23a227.47,227.47,0,0,0-22.91-1q-7.78-1-40,2a440.87,440.87,0,0,0-64.83,14.44q-7.79,3-21.89,9a134.49,134.49,0,0,0-28.78,18.42,106.85,106.85,0,0,0-23.86,30.86c-7.51,13-11.2,28.56-11.2,46.8q0,53.77,48.68,88.6,46.34,34.83,126.71,35.85,72.13-1,110.11-31.87Q534.61,795.62,534.59,747.85ZM392.35,448.77q40.3-1.5,67.14-29,13-19.43,16.66-39.89a330.28,330.28,0,0,0,2.24-34.42q0-60.31-30.87-121.66Q433,194.44,409.4,176q-24.15-17.39-55.47-18.44-41.49,1-69,33.42-23.19,33.92-22.15,75.81,0,55.34,32.36,115.18a157.58,157.58,0,0,0,40.5,47.35A89.12,89.12,0,0,0,392.35,448.77Z" transform="translate(0.66)" style="fill:#fff"/><polygon points="898.2 235.18 791.14 235.18 791.14 128.09 739.27 128.09 739.27 235.18 632.23 235.18 632.23 287.05 739.27 287.05 739.27 394.09 791.14 394.09 791.14 287.05 898.2 287.05 898.2 235.18" style="fill:#fff"/></svg>